<?xml version="1.0" encoding="utf-8"?>
<!-- Generator: Adobe Illustrator 27.5.0, SVG Export Plug-In . SVG Version: 6.00 Build 0)  -->
<svg version="1.1" id="BASE" xmlns="http://www.w3.org/2000/svg" xmlns:xlink="http://www.w3.org/1999/xlink" x="0px" y="0px"
	 viewBox="0 0 2372 1898" style="enable-background:new 0 0 2372 1898;" xml:space="preserve">
<g>
	<path style="fill:#BDBDBD;" d="M2213.148,1612.54l-98.284-1096.908c-0.559-6.237-1.632-12.293-3.166-18.119l-4.953-55.763
		c-4.532-51.025-43.048-89.905-89.066-89.905h-554.556c-26.119-101.54-118.286-176.574-227.978-176.574h-49.292
		c-109.678,0-201.845,75.033-227.964,176.574H354.04c-46.016,0-84.535,38.881-89.067,89.905l-4.953,55.763
		c-1.534,5.826-2.606,11.881-3.166,18.119L158.57,1612.54c-5.257,58.673,36.47,109.548,89.851,109.548h1874.876
		C2176.677,1722.089,2218.404,1671.213,2213.148,1612.54z M1210.57,296.973c35.117,6.534,65.423,26.733,85.196,54.872H1125.25
		C1145.051,323.682,1175.408,303.479,1210.57,296.973z"/>
	<path style="fill:#FEE3BE;" d="M2155.906,1499.666l-3.025-33.008l-5.281-57.617l-16.328-178.16l-32.156-350.879l-2.654-28.97
		l-5.281-57.617l-3.343-36.473l-5.28-57.618l-3.343-36.473l-7.87-85.879l-8.247-89.984c-2.238-24.426-13.182-45.837-29.313-60.793
		c-14.977-13.887-34.426-22.208-55.531-22.208h-507.821c-0.5-17.955-3.008-35.408-7.312-52.141
		c-26.119-101.54-118.286-176.574-227.978-176.574h-49.292c-109.678,0-201.845,75.033-227.964,176.574
		c-4.303,16.733-6.812,34.186-7.311,52.141H393.463c-21.105,0-40.554,8.322-55.531,22.208
		c-16.131,14.956-27.075,36.367-29.314,60.793l-8.247,89.984l-7.87,85.879L272.6,880.002l-7.871,85.879l-14.563,158.904
		l-5.279,57.617l-20.77,226.638l-5.28,57.617l-3.025,33.008c-1.882,20.527,2.609,40.02,11.656,56.315
		c14.826,26.705,41.884,44.821,73.189,44.821h1770.407c22.307,0,42.458-9.2,57.564-24.152
		C2147.654,1557.818,2158.675,1529.861,2155.906,1499.666z M1213.337,176.286v0.576c-0.92-0.107-1.844-0.208-2.767-0.305
		C1211.491,176.461,1212.414,176.37,1213.337,176.286z M1103.403,403.071l0.027-0.135c3.672-18.719,11.24-36.042,21.82-51.091
		c19.8-28.162,50.158-48.365,85.32-54.872c35.117,6.534,65.423,26.733,85.196,54.872c10.775,15.332,18.421,33.022,22.015,52.141
		h-214.552C1103.287,403.681,1103.343,403.375,1103.403,403.071z"/>
	<path style="fill:#FADAAB;" d="M2155.906,1499.666l-3.025-33.008l-5.281-57.617l-16.328-178.16h-2.646v178.16h-76.076v-178.16
		H1904.29v178.16h-76.074v-53.206h-495.273v53.206h-76.076v-53.206H814.442v-85.879h106.582v-87.553h76.075v87.553h154.838
		l222.681-266.806V840.335l10.098-11.572l62.656-71.821h3.323v123.061h377.521v-28.97h76.074v28.97h194.827l-2.654-28.97
		l-5.281-57.617l-3.343-36.473l-5.28-57.618l-3.343-36.473H1904.29v36.473h-76.074V662.85h-156.741v-85.879h156.741V403.986
		h-357.782c-0.5-17.955-3.008-35.408-7.312-52.141c-26.119-101.54-118.286-176.574-227.978-176.574h-49.292
		c-109.678,0-201.845,75.033-227.964,176.574c-4.303,16.733-6.812,34.186-7.311,52.141c-0.061,2.217-0.095,4.44-0.095,6.672
		c0,5.063,0.162,10.087,0.477,15.069c2.512,39.691,14.872,76.706,34.641,108.653h-0.016l11.517,18.868l14.48,23.723l52.419,85.879
		h-66.9v461.935h-76.075V662.85H814.442v-85.879h106.582V403.986H575.296v172.985h188.106v85.879H292.501L272.6,880.002h264.657
		v2.848l13.727,40.092l69.111,201.844h-81.013l-54.816-158.904H264.729l-14.563,158.904l-5.279,57.617l-20.77,226.638l-5.28,57.617
		l-3.025,33.008c-1.882,20.527,2.609,40.02,11.656,56.315l464.123-51.045c6.84-0.712,13.654-1.064,20.416-1.064
		c17.629-0.002,34.849,2.399,51.396,6.906v90.024h51.04v-68.192c17.194,10.26,33.096,22.979,47.232,37.838
		c8.871,9.301,17.073,19.456,24.507,30.354h370.684v-134.144h76.076v117.897h495.273v-117.897h76.074v134.144h148.261v-134.144
		h76.076v109.993C2147.654,1557.818,2158.675,1529.861,2155.906,1499.666z M1828.215,756.941h76.074v36.473h-76.074V756.941z
		 M1213.337,780.95c-0.952-0.247-1.898-0.515-2.844-0.795c0.952-0.283,1.9-0.583,2.844-0.9V780.95z M1430.514,541.971
		c7.761-11.523,14.526-23.771,20.18-36.619v71.619h169.742v85.879h-169.742v36.473h-19.02l-46.958,52.256l-10.098,11.235V662.85
		h-17.785L1430.514,541.971z M1213.337,176.286v0.576c-0.92-0.107-1.844-0.208-2.767-0.305
		C1211.491,176.461,1212.414,176.37,1213.337,176.286z M1103.403,403.071l0.027-0.135c3.672-18.719,11.24-36.042,21.82-51.091
		c19.8-28.162,50.158-48.365,85.32-54.872c35.117,6.534,65.423,26.733,85.196,54.872c10.775,15.332,18.421,33.022,22.015,52.141
		h-214.552C1103.287,403.681,1103.343,403.375,1103.403,403.071z M763.402,1355.834H618.786l-12.211-35.394l-47.617-138.038h80.866
		l29.978,87.553h93.6V1355.834z"/>
	<path style="fill:#C0D992;" d="M1356.833,662.85l-44.54,73.072l-4.14,6.792c-16.657,27.328-44.826,41.004-73.001,41.023v0h-49.293
		v0c-28.195,0.019-56.397-13.637-73.083-40.976l-6.558-10.745l-42.22-69.167h-66.9v461.935h52.231l181.389-201.844l143.899-160.127
		V662.85H1356.833z"/>
	<path style="fill:#E52421;" d="M1470.433,403.986c-0.5-17.955-3.008-35.408-7.312-52.141
		c-26.119-101.54-118.286-176.574-227.978-176.574h-49.292c-109.678,0-201.845,75.033-227.964,176.574
		c-4.303,16.733-6.812,34.186-7.311,52.141c-0.061,2.217-0.095,4.44-0.095,6.672c0,5.063,0.162,10.087,0.477,15.069
		c2.512,39.691,14.872,76.706,34.641,108.653h-0.016l11.517,18.868l14.48,23.723l52.419,85.879l42.22,69.167l6.558,10.745
		c16.686,27.338,44.889,40.995,73.083,40.976v0h49.293v0c28.176-0.019,56.344-13.695,73.001-41.023l4.14-6.792l44.54-73.072
		l73.681-120.879c7.761-11.523,14.526-23.771,20.18-36.619c10.834-24.622,17.575-51.451,19.356-79.625
		c0.316-4.983,0.478-10.007,0.478-15.069C1470.529,408.426,1470.495,406.202,1470.433,403.986z M1210.57,560.902
		c-53.95-9.986-96.585-52.22-107.137-105.965c-0.011-0.051-0.022-0.103-0.031-0.153c-0.083-0.429-0.165-0.859-0.244-1.29
		c-0.015-0.08-0.03-0.16-0.045-0.239c-0.075-0.408-0.147-0.817-0.218-1.226c-0.021-0.116-0.04-0.231-0.06-0.346
		c-0.067-0.394-0.132-0.788-0.197-1.184l-0.053-0.337c-0.064-0.407-0.128-0.815-0.189-1.224c-0.012-0.083-0.025-0.165-0.036-0.248
		c-0.351-2.379-0.64-4.78-0.865-7.198c-0.008-0.079-0.015-0.158-0.023-0.238c-0.034-0.384-0.066-0.77-0.098-1.156
		c-0.013-0.155-0.027-0.308-0.038-0.462c-0.03-0.369-0.057-0.74-0.083-1.111c-0.011-0.158-0.023-0.317-0.034-0.475
		c-0.025-0.367-0.046-0.734-0.068-1.102c-0.011-0.169-0.021-0.338-0.03-0.507c-0.02-0.375-0.039-0.75-0.057-1.126
		c-0.006-0.142-0.012-0.284-0.019-0.426c-0.017-0.389-0.033-0.779-0.046-1.17c-0.006-0.148-0.01-0.297-0.014-0.445
		c-0.013-0.389-0.025-0.779-0.034-1.17c-0.001-0.107-0.004-0.215-0.005-0.322c-0.02-0.949-0.031-1.9-0.031-2.854
		c0-0.954,0.011-1.905,0.031-2.854c0.002-0.107,0.004-0.215,0.005-0.322c0.002-0.009,0.002-0.018,0.002-0.027
		c0.008-0.381,0.02-0.761,0.032-1.141c0.004-0.149,0.008-0.298,0.014-0.447c0.013-0.391,0.03-0.78,0.046-1.17
		c0.007-0.141,0.013-0.282,0.019-0.423c0.018-0.376,0.037-0.752,0.057-1.128c0.01-0.169,0.02-0.337,0.03-0.505
		c0.022-0.369,0.043-0.737,0.07-1.105c0.01-0.156,0.022-0.311,0.032-0.467c0.026-0.374,0.053-0.747,0.083-1.12
		c0.011-0.151,0.025-0.301,0.037-0.452c0.031-0.388,0.064-0.776,0.099-1.163c0.008-0.081,0.017-0.161,0.023-0.241
		c0.182-1.963,0.406-3.915,0.671-5.852c0.002-0.006,0.003-0.012,0.003-0.018c0.061-0.441,0.124-0.88,0.19-1.319
		c0.012-0.085,0.025-0.17,0.037-0.255c0.061-0.41,0.125-0.818,0.19-1.227c0.018-0.11,0.034-0.22,0.052-0.329
		c0.064-0.396,0.13-0.792,0.197-1.186c0.019-0.115,0.04-0.23,0.059-0.345c0.072-0.412,0.146-0.824,0.221-1.236
		c0.013-0.073,0.027-0.145,0.041-0.217c0.025-0.132,0.049-0.263,0.074-0.394c0.059-0.305,0.114-0.611,0.174-0.915l0.027-0.135
		c3.672-18.719,11.24-36.042,21.82-51.091c19.8-28.162,50.158-48.365,85.32-54.872c35.117,6.534,65.423,26.733,85.196,54.872
		c10.775,15.332,18.421,33.022,22.015,52.141c1.328,7.068,2.103,14.33,2.277,21.741c0.025,1.065,0.038,2.132,0.038,3.203
		C1320.096,494.621,1272.91,549.299,1210.57,560.902z M1213.337,176.286v0.576c-0.92-0.107-1.844-0.208-2.767-0.305
		C1211.491,176.461,1212.414,176.37,1213.337,176.286z M1213.337,780.95c-0.952-0.247-1.898-0.515-2.844-0.795
		c0.952-0.283,1.9-0.583,2.844-0.9V780.95z"/>
	<path style="fill:#9B9C9C;" d="M2205.953,1532.249h-2.353l0.569,6.409c5.212,58.673-36.151,109.549-89.065,109.549H256.613
		c-52.913,0-94.277-50.875-89.065-109.549l0.569-6.409h-2.353l-7.194,80.292c-5.257,58.673,36.47,109.548,89.851,109.548h1874.876
		c53.38,0,95.107-50.875,89.851-109.548L2205.953,1532.249z"/>
	<path style="fill:#7FC392;" d="M1068.864,774.18c0,33.891,61.163,61.366,136.612,61.366c75.448,0,136.612-27.474,136.612-61.366
		c0-14.468-11.148-27.767-29.795-38.258l-4.14,6.792c-16.657,27.328-44.826,41.004-73.001,41.023v0h-49.293v0
		c-28.195,0.019-56.397-13.637-73.083-40.976l-6.558-10.745C1083.063,743.012,1068.864,757.851,1068.864,774.18z"/>
	<path style="fill:#B72117;" d="M1210.57,176.557c0.92-0.095,1.844-0.186,2.767-0.271v0.576c7.378,0.858,14.653,2.059,21.808,3.584
		c87.239,18.59,156.591,85.51,178.684,171.399c4.303,16.733,6.812,34.186,7.312,52.141c0.061,2.217,0.095,4.44,0.095,6.672
		c0,5.062-0.162,10.087-0.477,15.069c-2.711,42.876-16.908,82.639-39.538,116.244l-6.603,10.833l-14.731,24.167l-52.347,85.879
		l-35.229,57.798l-13.451,22.067c-6.416,10.523-14.537,19.021-23.709,25.495c-6.786,4.79-14.145,8.473-21.814,11.046v1.695
		c-0.952-0.247-1.898-0.515-2.844-0.795c-0.016,0.005-0.031,0.01-0.047,0.014c-7.999,2.373-16.292,3.563-24.587,3.568v0h49.293v0
		c28.176-0.019,56.344-13.695,73.001-41.023l4.14-6.792l44.54-73.072l73.681-120.879c7.761-11.523,14.526-23.771,20.18-36.619
		c10.834-24.622,17.575-51.451,19.356-79.625c0.316-4.983,0.478-10.007,0.478-15.069c0-2.232-0.034-4.455-0.095-6.672
		c-0.5-17.955-3.008-35.408-7.312-52.141c-26.119-101.54-118.286-176.574-227.978-176.574h-49.292
		c8.324,0,16.546,0.435,24.648,1.278C1210.523,176.552,1210.546,176.554,1210.57,176.557z"/>
	<path style="fill:#7E1908;" d="M1051.658,425.727c-0.025,1.065-0.039,2.132-0.039,3.203c0,74.136,60.096,134.246,134.232,134.246
		c8.42,0,16.658-0.778,24.648-2.261c0.025-0.004,0.048-0.008,0.071-0.013c-53.95-9.986-96.585-52.22-107.137-105.965
		c-0.011-0.051-0.022-0.103-0.031-0.153c-0.083-0.429-0.165-0.859-0.244-1.29c-0.015-0.08-0.03-0.16-0.045-0.239
		c-0.075-0.408-0.147-0.817-0.218-1.226c-0.021-0.116-0.04-0.231-0.06-0.346c-0.067-0.394-0.132-0.788-0.197-1.184l-0.053-0.337
		c-0.064-0.407-0.128-0.815-0.189-1.224c-0.012-0.083-0.025-0.165-0.036-0.248c-0.351-2.379-0.64-4.78-0.865-7.198
		c-0.008-0.079-0.015-0.158-0.023-0.238c-0.034-0.384-0.066-0.77-0.098-1.156c-0.013-0.155-0.027-0.308-0.038-0.462
		c-0.03-0.369-0.057-0.74-0.083-1.111c-0.011-0.158-0.023-0.317-0.034-0.475c-0.025-0.367-0.046-0.734-0.068-1.102
		c-0.011-0.169-0.021-0.338-0.03-0.507c-0.02-0.375-0.039-0.75-0.057-1.126c-0.006-0.142-0.012-0.284-0.019-0.426
		c-0.017-0.389-0.033-0.779-0.046-1.17c-0.006-0.148-0.01-0.297-0.014-0.445c-0.013-0.389-0.025-0.779-0.034-1.17
		c-0.001-0.107-0.004-0.215-0.005-0.322c-0.02-0.949-0.031-1.9-0.031-2.854c0-0.954,0.011-1.905,0.031-2.854
		c0.002-0.107,0.004-0.215,0.005-0.322c0.002-0.009,0.002-0.018,0.002-0.027c0.008-0.381,0.02-0.761,0.032-1.141
		c0.004-0.149,0.008-0.298,0.014-0.447c0.013-0.391,0.03-0.78,0.046-1.17c0.007-0.141,0.013-0.282,0.019-0.423
		c0.018-0.376,0.037-0.752,0.057-1.128c0.01-0.169,0.02-0.337,0.03-0.505c0.022-0.369,0.043-0.737,0.07-1.105
		c0.01-0.156,0.022-0.311,0.032-0.467c0.026-0.374,0.053-0.747,0.083-1.12c0.011-0.151,0.025-0.301,0.037-0.452
		c0.031-0.388,0.064-0.776,0.099-1.163c0.008-0.081,0.017-0.161,0.023-0.241c0.182-1.963,0.406-3.915,0.671-5.852
		c0.002-0.006,0.003-0.012,0.003-0.018c0.061-0.441,0.124-0.88,0.19-1.319c0.012-0.085,0.025-0.17,0.037-0.255
		c0.061-0.41,0.125-0.818,0.19-1.227c0.018-0.11,0.034-0.22,0.052-0.329c0.064-0.396,0.13-0.792,0.197-1.186
		c0.019-0.115,0.04-0.23,0.059-0.345c0.072-0.412,0.146-0.824,0.221-1.236c0.013-0.073,0.027-0.145,0.041-0.217
		c0.025-0.132,0.049-0.263,0.074-0.394c0.059-0.305,0.114-0.611,0.174-0.915l0.027-0.135c3.672-18.719,11.24-36.042,21.82-51.091
		c19.8-28.162,50.158-48.365,85.32-54.872c-0.023-0.005-0.046-0.009-0.071-0.013c-7.99-1.482-16.228-2.26-24.648-2.26
		c-45.449,0-85.618,22.585-109.902,57.145c-10.774,15.332-18.421,33.022-22.014,52.141
		C1052.607,411.053,1051.832,418.315,1051.658,425.727z"/>
	<path style="fill:#E94649;" d="M1213.337,666.794c-0.571-1.322-1.157-2.638-1.762-3.944c-5.976-12.919-13.61-25.027-22.584-35.455
		c-10.978-12.756-24.803-23.896-41.2-27.681c-16.397-3.785-35.567,1.295-44.944,15.269c-3.918,5.84-6.31,12.075-7.454,18.543
		c-1.671,9.446-0.678,19.388,2.13,29.324c6.087,21.547,20.7,43.061,35.139,59.399c5.508,6.234,10.992,11.715,15.968,16.156
		c6.032,5.384,12.706,10.47,20.032,13.739c0.003,0.001,0.007,0.003,0.01,0.004c4.069,1.815,8.338,3.071,12.81,3.5
		c1.482,0.142,2.94,0.191,4.378,0.162c10.93-0.22,20.502-5.232,27.478-12.73c0.147-0.158,0.296-0.316,0.441-0.477
		c7.17-7.938,11.48-18.531,11.523-29.147c0.008-1.786-0.102-3.573-0.343-5.347C1223.071,694.203,1219.084,680.123,1213.337,666.794z
		"/>
	<path style="fill:#E94649;" d="M1290.098,301.901c2.82,2.641,5.567,5.174,8.052,7.602c0.645,0.63,1.284,1.269,1.919,1.91
		c11.718,11.844,21.531,25.555,29.029,40.431c1.644,3.259,3.177,6.572,4.593,9.936c3.604,8.566,5.662,19.373,12.907,25.813
		c4.862,4.324,11.797,7.489,18.719,8.403c3.684,0.487,7.362,0.337,10.721-0.618c10.932-3.106,18.752-13.384,21.552-24.397
		c1.588-6.247,1.795-12.702,1.199-19.137c-0.453-4.909-1.374-9.806-2.505-14.592c-9.983-42.256-36.703-80.316-73.056-104.064
		c-17.318-11.313-43.798-4.262-54.242,13.312C1255.856,268.595,1274.151,286.967,1290.098,301.901z"/>
	<path style="fill:#00AD90;" d="M499.22,403.986H393.463c-21.105,0-40.554,8.322-55.531,22.208
		c-16.131,14.956-27.075,36.367-29.314,60.793l-8.247,89.984H499.22V403.986z"/>
	<polygon style="fill:#C0D992;" points="1011.579,576.971 997.099,553.248 997.099,576.971 	"/>
	<path style="fill:#C0D992;" d="M1904.29,576.971h167.056l-8.247-89.984c-2.238-24.426-13.182-45.837-29.313-60.793
		c-14.977-13.887-34.426-22.208-55.531-22.208h-73.965V576.971z"/>
	<polygon style="fill:#00AD90;" points="1450.694,1037.234 1256.461,1269.956 1654.708,1269.956 1654.708,965.882 1450.694,965.882 
			"/>
	<path style="fill:#C0D992;" d="M698.986,1595.498l-48.26,5.304H750c-12.12-3.902-24.869-5.983-37.994-5.984
		C707.714,1594.818,703.374,1595.041,698.986,1595.498z"/>
	<rect x="1904.29" y="965.882" style="fill:#FADAAB;" width="148.261" height="179.119"/>
	<rect x="1730.783" y="965.882" style="fill:#FADAAB;" width="97.432" height="304.074"/>
	<polygon style="fill:#C0D992;" points="537.257,662.85 292.501,662.85 272.6,880.002 537.257,880.002 	"/>
	<polygon style="fill:#C0D992;" points="1904.29,793.415 2091.182,793.415 2087.838,756.941 1904.29,756.941 	"/>
	<polygon style="fill:#C0D992;" points="1904.29,699.323 2082.559,699.323 2079.216,662.85 1904.29,662.85 	"/>
	<polygon style="fill:#C0D992;" points="1904.29,880.002 2099.117,880.002 2096.463,851.032 1904.29,851.032 	"/>
	<polygon style="fill:#C0D992;" points="2128.627,1409.041 2147.6,1409.041 2131.273,1230.881 2128.627,1230.881 	"/>
	<rect x="1904.29" y="1230.881" style="fill:#C0D992;" width="148.261" height="178.16"/>
	<polygon style="fill:#C0D992;" points="1151.937,1269.956 1374.618,1003.15 1374.618,840.335 1302.552,922.942 1076.198,1182.403 
		997.099,1182.403 997.099,1269.956 	"/>
	<path style="fill:#00AD90;" d="M814.442,1466.658v65.952c17.194,10.26,33.096,22.979,47.232,37.838
		c8.871,9.301,17.073,19.456,24.507,30.354h370.684v-134.144H814.442z"/>
	<rect x="1332.942" y="1466.658" style="fill:#C0D992;" width="369.355" height="117.897"/>
	<rect x="1332.942" y="1355.834" style="fill:#C0D992;" width="369.355" height="53.206"/>
	<rect x="814.442" y="1355.834" style="fill:#00AD90;" width="442.423" height="53.206"/>
	<polygon style="fill:#C0D992;" points="763.402,1355.834 618.786,1355.834 606.575,1320.441 341.635,1320.441 341.635,1182.403 
		244.886,1182.403 224.117,1409.041 763.402,1409.041 	"/>
	<path style="fill:#C0D992;" d="M712.006,1503.872c17.629-0.002,34.849,2.399,51.396,6.906v-44.12H218.837l-3.025,33.008
		c-1.882,20.527,2.609,40.02,11.656,56.315l464.123-51.045C698.43,1504.224,705.243,1503.872,712.006,1503.872z"/>
	<polygon style="fill:#C0D992;" points="341.635,965.882 264.729,965.882 250.166,1124.786 341.635,1124.786 	"/>
	<polygon style="fill:#58B6DE;" points="537.257,662.85 537.257,882.851 550.984,922.942 620.095,1124.786 763.402,1124.786 
		763.402,662.85 	"/>
	<rect x="814.442" y="662.85" style="fill:#58B6DE;" width="106.582" height="461.935"/>
	<rect x="814.442" y="1182.403" style="fill:#58B6DE;" width="106.582" height="87.553"/>
	<polygon style="fill:#58B6DE;" points="763.402,1269.956 763.402,1182.403 639.824,1182.403 669.803,1269.956 	"/>
	<rect x="1620.436" y="403.986" style="fill:#E52421;" width="51.038" height="295.338"/>
	<polygon style="fill:#E52421;" points="1671.474,793.415 1671.474,756.941 1620.436,756.941 1620.436,851.032 2096.463,851.032 
		2091.182,793.415 	"/>
	<rect x="763.402" y="403.986" style="fill:#FED502;" width="51.04" height="720.8"/>
	<polygon style="fill:#FED502;" points="814.442,1409.041 814.442,1182.403 763.402,1182.403 763.402,1409.041 224.117,1409.041 
		218.837,1466.658 763.402,1466.658 763.402,1600.802 814.442,1600.802 814.442,1466.658 2152.882,1466.658 2147.6,1409.041 	"/>
	<polygon style="fill:#0095D1;" points="1431.674,699.323 1384.716,751.58 1374.618,762.815 1230.719,922.942 1049.33,1124.786 
		250.166,1124.786 244.886,1182.403 1076.198,1182.403 1302.552,922.942 1374.618,840.335 1384.716,828.762 1447.371,756.941 
		2087.838,756.941 2082.559,699.323 	"/>
	<path style="fill:#C0D992;" d="M1103.155,404.38c-0.014,0.072-0.027,0.144-0.041,0.217c-0.075,0.411-0.149,0.823-0.221,1.236
		c-0.019,0.115-0.04,0.23-0.059,0.345c-0.067,0.394-0.133,0.79-0.197,1.186c-0.018,0.109-0.034,0.219-0.052,0.329
		c-0.065,0.409-0.129,0.817-0.19,1.227c-0.012,0.085-0.025,0.17-0.037,0.255c-0.066,0.439-0.128,0.878-0.19,1.319
		c0,0.006-0.001,0.012-0.003,0.018c-0.266,1.938-0.489,3.889-0.671,5.852c-0.007,0.08-0.015,0.16-0.023,0.241
		c-0.035,0.387-0.068,0.775-0.099,1.163c-0.012,0.151-0.026,0.301-0.037,0.452c-0.03,0.373-0.057,0.746-0.083,1.12
		c-0.011,0.156-0.023,0.311-0.032,0.467c-0.026,0.368-0.048,0.736-0.07,1.105c-0.011,0.168-0.021,0.337-0.03,0.505
		c-0.02,0.375-0.039,0.752-0.057,1.128c-0.006,0.141-0.012,0.282-0.019,0.423c-0.017,0.389-0.033,0.779-0.046,1.17
		c-0.006,0.149-0.01,0.298-0.014,0.447c-0.012,0.38-0.025,0.76-0.032,1.141c0,0.009,0,0.018-0.002,0.027
		c-0.001,0.107-0.004,0.215-0.005,0.322c-0.02,0.949-0.031,1.9-0.031,2.854c0,0.953,0.011,1.905,0.031,2.854
		c0.002,0.107,0.004,0.215,0.005,0.322c0.01,0.39,0.021,0.78,0.034,1.17c0.004,0.148,0.008,0.297,0.014,0.445
		c0.013,0.39,0.03,0.78,0.046,1.17c0.007,0.142,0.013,0.284,0.019,0.426c0.018,0.376,0.037,0.751,0.057,1.126
		c0.01,0.168,0.02,0.337,0.03,0.507c0.022,0.368,0.043,0.735,0.068,1.102c0.011,0.158,0.023,0.317,0.034,0.475
		c0.026,0.371,0.053,0.742,0.083,1.111c0.011,0.154,0.025,0.308,0.038,0.462c0.032,0.385,0.064,0.771,0.098,1.156
		c0.008,0.08,0.015,0.158,0.023,0.238c0.225,2.419,0.513,4.819,0.865,7.198c0.011,0.083,0.023,0.165,0.036,0.248
		c0.061,0.408,0.125,0.817,0.189,1.224l0.053,0.337c0.065,0.396,0.13,0.79,0.197,1.184c0.021,0.116,0.04,0.231,0.06,0.346
		c0.07,0.409,0.143,0.818,0.218,1.226c0.015,0.08,0.03,0.16,0.045,0.239c0.079,0.431,0.161,0.861,0.244,1.29
		c0.01,0.051,0.02,0.102,0.031,0.153c10.552,53.746,53.187,95.979,107.137,105.965c62.34-11.603,109.526-66.281,109.526-131.973
		c0-1.071-0.013-2.138-0.038-3.203c-0.174-7.411-0.949-14.673-2.277-21.741h-214.552
		C1103.204,404.117,1103.18,404.248,1103.155,404.38z"/>
</g>
</svg>
